# xmcd
#
# Track frame offsets:
#	182
#	11902
#	21617
#	32707
#	43275
#	55490
#	66057
#	77042
#	86537
#	97757
#
# Disc length: 1448 seconds
#
# Revision: 1
# Processed by: cddbd v1.5.1PL2 Copyright (c) Steve Scherf et al.
# Submitted via: audiograbber 1.83.01
#
DISCID=8005a60a
DTITLE=Chubby Checker - The Twist
DYEAR=1900
DGENRE=
TTITLE0=The Twist
TTITLE1=Twenty Miles
TTITLE2=Pony Time
TTITLE3=Let's Twist Again
TTITLE4=Slow Twistin'
TTITLE5=The Fly
TTITLE6=The Hucklebuck
TTITLE7=Loddy Lo
TTITLE8=Popeye (The Hitchiker)
TTITLE9=Ann Rosie
EXTD=
EXTT0=
EXTT1=
EXTT2=
EXTT3=
EXTT4=
EXTT5=
EXTT6=
EXTT7=
EXTT8=
EXTT9=
PLAYORDER=
